<svg width="32" height="32" viewBox="0 0 32 32" fill="none" xmlns="http://www.w3.org/2000/svg">
<path d="M16 1.33333C7.63667 1.33333 1.33333 7.63667 1.33333 16C1.33333 24.3633 7.63667 30.6667 16 30.6667C24.3633 30.6667 30.6667 24.3633 30.6667 16C30.6667 7.63667 24.3633 1.33333 16 1.33333ZM22.6367 9.29556L21.2167 10.7367C21.1267 10.8267 21.0733 10.9867 21.0933 11.1367V20.8367C21.0733 20.9867 21.1267 21.1467 21.2167 21.2367L22.6333 22.6778V22.92H15.4267V22.68L16.9867 21.1733C17.1067 21.0533 17.1067 21.02 17.1067 20.84V12.5367L12.06 22.8933H11.7267L6.60667 12.5367V20.64C6.60667 20.76 6.60667 20.84 6.72667 20.9733L8.64667 22.6933V22.9333H4.66667V22.6933L6.60667 20.9733C6.72667 20.8533 6.78 20.6933 6.72667 20.5533V11.4533C6.72667 11.3133 6.72667 11.1533 6.60667 11.0333L4.84 9.29333V9.05333H9.07333L13.32 18.16L17.0867 9.05333H22.6333V9.29333L22.6367 9.29556Z" fill="#666666"/>
</svg>